<?xml version="1.0" encoding="UTF-8" standalone="no"?>
<svg
   xmlns:dc="http://purl.org/dc/elements/1.1/"
   xmlns:cc="http://creativecommons.org/ns#"
   xmlns:rdf="http://www.w3.org/1999/02/22-rdf-syntax-ns#"
   xmlns:svg="http://www.w3.org/2000/svg"
   xmlns="http://www.w3.org/2000/svg"
   xmlns:sodipodi="http://sodipodi.sourceforge.net/DTD/sodipodi-0.dtd"
   xmlns:inkscape="http://www.inkscape.org/namespaces/inkscape"
   version="1.1"
   id="svg10"
   width="1370.6925"
   height="584.06958"
   viewBox="0 0 1370.6925 584.06958"
   sodipodi:docname="logo.svg"
   inkscape:version="1.0.2-2 (e86c870879, 2021-01-15)">
  <metadata
     id="metadata16">
    <rdf:RDF>
      <cc:Work
         rdf:about="">
        <dc:format>image/svg+xml</dc:format>
        <dc:type
           rdf:resource="http://purl.org/dc/dcmitype/StillImage" />
        <dc:title></dc:title>
      </cc:Work>
    </rdf:RDF>
  </metadata>
  <defs
     id="defs14" />
  <sodipodi:namedview
     pagecolor="#ffffff"
     bordercolor="#5e5e5e"
     borderopacity="0.84313725"
     objecttolerance="10"
     gridtolerance="10"
     guidetolerance="10"
     inkscape:pageopacity="0"
     inkscape:pageshadow="2"
     inkscape:window-width="1920"
     inkscape:window-height="996"
     id="namedview12"
     showgrid="false"
     inkscape:pagecheckerboard="true"
     borderlayer="false"
     inkscape:showpageshadow="false"
     inkscape:zoom="0.88782186"
     inkscape:cx="773.77341"
     inkscape:cy="291.59603"
     inkscape:window-x="-8"
     inkscape:window-y="-8"
     inkscape:window-maximized="1"
     inkscape:current-layer="g18" />
  <g
     inkscape:groupmode="layer"
     inkscape:label="Image"
     id="g18"
     transform="translate(-66.820068,-105.96926)">
    <path
       style="fill:#396430;fill-opacity:1"
       d="m 166.47851,687.76323 c -6.08561,-3.07163 -9.1753,-8.49205 -8.69264,-15.25 0.32187,-4.5065 5.31038,-13.58179 50.54187,-91.94766 38.97258,-67.52198 50.18476,-87.69656 50.18476,-90.29966 0,-4.0339 -1.87353,-7.87751 -5.485,-11.25268 l -2.67503,-2.5 -86.16998,-0.5 c -65.490028,-0.38 -86.684078,-0.79458 -88.312128,-1.72746 -3.4039,-1.95046 -7.22006,-7.04382 -8.2926,-11.06801 -1.86293,-6.98972 -3.853,-3.0685 40.958408,-80.70453 7.30157,-12.65 14.44574,-24.29292 15.87595,-25.87316 5.33093,-5.89015 0.17493,-5.62684 110.18211,-5.62684 h 101.14596 l 3.7781,-2.12341 c 4.22574,-2.375 -3.16178,10.05102 87.32111,-146.87659 27.74839,-48.125 51.83997,-88.93818 53.53684,-90.69595 1.69687,-1.75777 4.7842,-3.66777 6.86074,-4.24443 5.31701,-1.47655 615.26122,-1.46901 620.57892,0.008 2.0918,0.58088 5.1097,2.26587 6.7065,3.74443 3.4258,3.17225 56.6106,95.08008 57.9764,100.18828 1.8431,6.89298 -1.4346,14.12933 -8.1224,17.93232 -3.5999,2.04708 -4.5139,2.06768 -91.7297,2.06768 -78.44032,0 -88.53217,0.17543 -92.09476,1.6009 -7.33557,2.93511 -10.35948,11.97038 -6.51801,19.47543 2.44235,4.77159 173.11767,300.56748 176.07237,305.14938 5.0926,7.8973 -5.0953,7.21462 116.0194,7.77429 l 108.2019,0.5 3.7054,3 c 3.6704,2.97176 6.256,7.26601 46.598,77.39191 11.9954,20.85147 12.8816,22.75034 12.8816,27.60212 0,6.61004 -2.8728,11.17578 -8.97,14.25597 l -4.4538,2.25 -167.5381,-0.022 c -162.4241,-0.0213 -167.6658,-0.0799 -171.722,-1.9215 -2.5288,-1.14815 -5.161,-3.41395 -6.6543,-5.72804 -1.3587,-2.10566 -25.2985,-43.42849 -53.1994,-91.82849 -68.66445,-119.11269 -63.74968,-110.93386 -67.82335,-112.86695 -3.03313,-1.43931 -9.06056,-1.63305 -50.80588,-1.63305 -43.96225,0 -47.60921,0.13125 -50.77161,1.82727 -6.35529,3.40838 -8.82729,11.84339 -5.41361,18.47239 0.90643,1.76019 23.48455,41.00034 50.1736,87.20034 43.62814,75.52237 48.56271,84.50462 48.89381,89 0.49756,6.75528 -2.58719,12.174 -8.68147,15.25 l -4.45777,2.25 h -55.97239 c -54.56778,0 -56.07974,-0.052 -60.2504,-2.07095 -2.51125,-1.21568 -5.22281,-3.59035 -6.56572,-5.75 -1.25824,-2.02348 -27.99934,-48.22905 -59.42467,-102.67905 -44.48818,-77.08373 -57.85885,-99.4981 -60.39788,-101.25 l -3.26093,-2.25 H 553.5125 416.80827 l -3.28801,2.25 c -2.5797,1.76531 -14.72878,22.0705 -56.39788,94.2598 -29.21043,50.6054 -55.89977,96.79181 -59.30963,102.63647 -9.42784,16.15977 -3.19349,14.85373 -70.90408,14.85373 h -55.97239 z m 437.79313,-338.7446 c 1.79253,-1.09292 4.18008,-3.45373 5.30567,-5.24626 4.16988,-6.64062 3.40604,-8.45408 -22.18058,-52.65985 -25.30584,-43.72067 -25.59106,-44.09181 -33.88423,-44.09181 -8.4208,0 -8.67581,0.33052 -34.0431,44.12453 -22.88319,39.50547 -23.3836,40.4886 -23.41985,46.013 -0.0403,6.14394 1.33952,8.52087 6.96295,11.99443 2.81045,1.736 6.00125,1.85308 50.5,1.85308 45.6373,0 47.62781,-0.0779 50.75914,-1.98712 z m 265.34298,-0.27533 c 4.52664,-3.02399 7.1298,-8.18688 6.54524,-12.98128 -0.30082,-2.46723 -5.84379,-13.07804 -16.19404,-31 -8.65517,-14.98683 -19.14628,-33.23538 -23.31358,-40.55232 -8.25593,-14.49576 -11.13032,-17.2803 -17.93483,-17.37421 -3.9104,-0.054 -8.96171,1.96191 -10.92967,4.3618 -0.5935,0.72377 -11.46998,19.31594 -24.16996,41.31594 -20.49218,35.49832 -23.09168,40.49315 -23.09808,44.38197 -0.009,5.40123 2.83717,10.29841 7.24903,12.47337 2.83303,1.39663 9.2713,1.602 50.84589,1.62189 l 47.60211,0.0228 3.39789,-2.26993 z"
       id="path24" />
  </g>
</svg>
